<mxfile host="Electron" modified="2023-05-29T09:51:05.014Z" agent="Mozilla/5.0 (X11; Linux x86_64) AppleWebKit/537.36 (KHTML, like Gecko) draw.io/21.2.8 Chrome/112.0.5615.165 Electron/24.2.0 Safari/537.36" etag="O6ifrakMWevO7I9jBRWl" version="21.2.8" type="device">
  <diagram id="IJfcli3YJuVmaga237SU" name="第 1 页">
    <mxGraphModel dx="1114" dy="1136" grid="1" gridSize="10" guides="1" tooltips="1" connect="1" arrows="1" fold="1" page="1" pageScale="1" pageWidth="827" pageHeight="1169" math="0" shadow="0">
      <root>
        <mxCell id="0" />
        <mxCell id="1" parent="0" />
        <mxCell id="Ks6YIUJeLbi1-6-zDUMp-9" style="edgeStyle=orthogonalEdgeStyle;rounded=0;orthogonalLoop=1;jettySize=auto;html=1;exitX=0.5;exitY=1;exitDx=0;exitDy=0;entryX=0.5;entryY=0;entryDx=0;entryDy=0;" parent="1" source="Ks6YIUJeLbi1-6-zDUMp-2" target="Ks6YIUJeLbi1-6-zDUMp-3" edge="1">
          <mxGeometry relative="1" as="geometry" />
        </mxCell>
        <mxCell id="Ks6YIUJeLbi1-6-zDUMp-2" value="SoC Hardcode Stage" style="rounded=1;whiteSpace=wrap;html=1;fillColor=#008a00;strokeColor=#005700;fontColor=#ffffff;fontStyle=1" parent="1" vertex="1">
          <mxGeometry x="270" y="160" width="140" height="40" as="geometry" />
        </mxCell>
        <mxCell id="Ks6YIUJeLbi1-6-zDUMp-15" style="edgeStyle=orthogonalEdgeStyle;rounded=0;orthogonalLoop=1;jettySize=auto;html=1;exitX=0.5;exitY=1;exitDx=0;exitDy=0;entryX=0.5;entryY=0;entryDx=0;entryDy=0;" parent="1" source="Ks6YIUJeLbi1-6-zDUMp-3" target="Ks6YIUJeLbi1-6-zDUMp-14" edge="1">
          <mxGeometry relative="1" as="geometry" />
        </mxCell>
        <mxCell id="Ks6YIUJeLbi1-6-zDUMp-3" value="NXP Hardcode BootROM (EL3)" style="rounded=0;whiteSpace=wrap;html=1;fillColor=#a20025;fontColor=#ffffff;strokeColor=#6F0000;fontStyle=1" parent="1" vertex="1">
          <mxGeometry x="255" y="240" width="170" height="40" as="geometry" />
        </mxCell>
        <mxCell id="Ks6YIUJeLbi1-6-zDUMp-7" value="Read RCW/PBL image" style="text;html=1;align=center;verticalAlign=middle;resizable=0;points=[];autosize=1;strokeColor=none;fillColor=none;" parent="1" vertex="1">
          <mxGeometry x="105" y="155" width="150" height="30" as="geometry" />
        </mxCell>
        <mxCell id="Ks6YIUJeLbi1-6-zDUMp-8" value="· Pin mux + SerDes pins&lt;br&gt;· Clock and PLL&lt;br&gt;· load BootROM" style="text;html=1;align=left;verticalAlign=middle;resizable=0;points=[];autosize=1;strokeColor=none;fillColor=none;fontStyle=1" parent="1" vertex="1">
          <mxGeometry x="414" y="150" width="160" height="60" as="geometry" />
        </mxCell>
        <mxCell id="Ks6YIUJeLbi1-6-zDUMp-10" value="· Config Low-level aspects of SoC&lt;br&gt;· load TF-A binaries" style="text;html=1;align=left;verticalAlign=middle;resizable=0;points=[];autosize=1;strokeColor=none;fillColor=none;fontStyle=1" parent="1" vertex="1">
          <mxGeometry x="425" y="240" width="220" height="40" as="geometry" />
        </mxCell>
        <mxCell id="Ks6YIUJeLbi1-6-zDUMp-21" style="edgeStyle=orthogonalEdgeStyle;rounded=0;orthogonalLoop=1;jettySize=auto;html=1;exitX=0.5;exitY=1;exitDx=0;exitDy=0;" parent="1" source="Ks6YIUJeLbi1-6-zDUMp-14" target="Ks6YIUJeLbi1-6-zDUMp-19" edge="1">
          <mxGeometry relative="1" as="geometry" />
        </mxCell>
        <mxCell id="Ks6YIUJeLbi1-6-zDUMp-14" value="ATF (Platform init firmware)&lt;br&gt;&amp;nbsp;(EL3)" style="rounded=0;whiteSpace=wrap;html=1;fillColor=#a20025;fontColor=#ffffff;strokeColor=#6F0000;fontStyle=1" parent="1" vertex="1">
          <mxGeometry x="255" y="320" width="170" height="40" as="geometry" />
        </mxCell>
        <mxCell id="Ks6YIUJeLbi1-6-zDUMp-17" value="BL1" style="text;html=1;align=center;verticalAlign=middle;resizable=0;points=[];autosize=1;strokeColor=none;fillColor=none;" parent="1" vertex="1">
          <mxGeometry x="219" y="260" width="40" height="30" as="geometry" />
        </mxCell>
        <mxCell id="Ks6YIUJeLbi1-6-zDUMp-18" value="BL2" style="text;html=1;align=center;verticalAlign=middle;resizable=0;points=[];autosize=1;strokeColor=none;fillColor=none;" parent="1" vertex="1">
          <mxGeometry x="219" y="335" width="40" height="30" as="geometry" />
        </mxCell>
        <mxCell id="Ks6YIUJeLbi1-6-zDUMp-28" style="edgeStyle=orthogonalEdgeStyle;rounded=0;orthogonalLoop=1;jettySize=auto;html=1;exitX=1;exitY=0.5;exitDx=0;exitDy=0;" parent="1" source="Ks6YIUJeLbi1-6-zDUMp-19" target="Ks6YIUJeLbi1-6-zDUMp-22" edge="1">
          <mxGeometry relative="1" as="geometry" />
        </mxCell>
        <mxCell id="Ks6YIUJeLbi1-6-zDUMp-29" style="edgeStyle=orthogonalEdgeStyle;rounded=0;orthogonalLoop=1;jettySize=auto;html=1;exitX=0.25;exitY=1;exitDx=0;exitDy=0;entryX=0.25;entryY=0;entryDx=0;entryDy=0;" parent="1" source="Ks6YIUJeLbi1-6-zDUMp-19" target="Ks6YIUJeLbi1-6-zDUMp-25" edge="1">
          <mxGeometry relative="1" as="geometry" />
        </mxCell>
        <mxCell id="Ks6YIUJeLbi1-6-zDUMp-19" value="ATF (Runtime firmware)&lt;br&gt;&amp;nbsp;(EL3)" style="rounded=0;whiteSpace=wrap;html=1;fillColor=#a20025;fontColor=#ffffff;strokeColor=#6F0000;fontStyle=1" parent="1" vertex="1">
          <mxGeometry x="255" y="395" width="170" height="40" as="geometry" />
        </mxCell>
        <mxCell id="Ks6YIUJeLbi1-6-zDUMp-20" value="BL31" style="text;html=1;align=center;verticalAlign=middle;resizable=0;points=[];autosize=1;strokeColor=none;fillColor=none;" parent="1" vertex="1">
          <mxGeometry x="214" y="413" width="50" height="30" as="geometry" />
        </mxCell>
        <mxCell id="Ks6YIUJeLbi1-6-zDUMp-38" style="edgeStyle=orthogonalEdgeStyle;rounded=0;orthogonalLoop=1;jettySize=auto;html=1;exitX=0.5;exitY=1;exitDx=0;exitDy=0;entryX=0.5;entryY=0;entryDx=0;entryDy=0;" parent="1" source="Ks6YIUJeLbi1-6-zDUMp-22" target="Ks6YIUJeLbi1-6-zDUMp-37" edge="1">
          <mxGeometry relative="1" as="geometry" />
        </mxCell>
        <mxCell id="Ks6YIUJeLbi1-6-zDUMp-22" value="UBoot/UEFI&amp;nbsp;(EL2)" style="rounded=0;whiteSpace=wrap;html=1;fillColor=#008a00;fontColor=#ffffff;strokeColor=#005700;fontStyle=1" parent="1" vertex="1">
          <mxGeometry x="490" y="395" width="170" height="40" as="geometry" />
        </mxCell>
        <mxCell id="Ks6YIUJeLbi1-6-zDUMp-31" style="edgeStyle=orthogonalEdgeStyle;rounded=0;orthogonalLoop=1;jettySize=auto;html=1;exitX=0.75;exitY=0;exitDx=0;exitDy=0;entryX=0.75;entryY=1;entryDx=0;entryDy=0;" parent="1" source="Ks6YIUJeLbi1-6-zDUMp-25" target="Ks6YIUJeLbi1-6-zDUMp-19" edge="1">
          <mxGeometry relative="1" as="geometry" />
        </mxCell>
        <mxCell id="Ks6YIUJeLbi1-6-zDUMp-25" value="OP-TEE&lt;br&gt;&amp;nbsp;(EL1)" style="rounded=0;whiteSpace=wrap;html=1;fillColor=#a20025;fontColor=#ffffff;strokeColor=#6F0000;fontStyle=1" parent="1" vertex="1">
          <mxGeometry x="255" y="470" width="170" height="40" as="geometry" />
        </mxCell>
        <mxCell id="Ks6YIUJeLbi1-6-zDUMp-26" value="BL32" style="text;html=1;align=center;verticalAlign=middle;resizable=0;points=[];autosize=1;strokeColor=none;fillColor=none;" parent="1" vertex="1">
          <mxGeometry x="213" y="489" width="50" height="30" as="geometry" />
        </mxCell>
        <mxCell id="Ks6YIUJeLbi1-6-zDUMp-32" value="1&lt;br&gt;" style="text;html=1;align=center;verticalAlign=middle;resizable=0;points=[];autosize=1;strokeColor=none;fillColor=none;fontStyle=1" parent="1" vertex="1">
          <mxGeometry x="331" y="361" width="30" height="30" as="geometry" />
        </mxCell>
        <mxCell id="Ks6YIUJeLbi1-6-zDUMp-34" value="2" style="text;html=1;align=center;verticalAlign=middle;resizable=0;points=[];autosize=1;strokeColor=none;fillColor=none;fontStyle=1" parent="1" vertex="1">
          <mxGeometry x="290" y="436" width="30" height="30" as="geometry" />
        </mxCell>
        <mxCell id="Ks6YIUJeLbi1-6-zDUMp-35" value="3" style="text;html=1;align=center;verticalAlign=middle;resizable=0;points=[];autosize=1;strokeColor=none;fillColor=none;fontStyle=1" parent="1" vertex="1">
          <mxGeometry x="374" y="439" width="30" height="30" as="geometry" />
        </mxCell>
        <mxCell id="Ks6YIUJeLbi1-6-zDUMp-36" value="4" style="text;html=1;align=center;verticalAlign=middle;resizable=0;points=[];autosize=1;strokeColor=none;fillColor=none;fontStyle=1" parent="1" vertex="1">
          <mxGeometry x="435" y="393" width="30" height="30" as="geometry" />
        </mxCell>
        <mxCell id="Ks6YIUJeLbi1-6-zDUMp-37" value="Guest OS (Linux Kernel) (EL1)" style="rounded=0;whiteSpace=wrap;html=1;fillColor=#008a00;fontColor=#ffffff;strokeColor=#005700;fontStyle=1" parent="1" vertex="1">
          <mxGeometry x="490" y="470" width="170" height="40" as="geometry" />
        </mxCell>
        <mxCell id="Ks6YIUJeLbi1-6-zDUMp-39" value="5" style="text;html=1;align=center;verticalAlign=middle;resizable=0;points=[];autosize=1;strokeColor=none;fillColor=none;fontStyle=1" parent="1" vertex="1">
          <mxGeometry x="568" y="435" width="30" height="30" as="geometry" />
        </mxCell>
        <mxCell id="Ks6YIUJeLbi1-6-zDUMp-42" style="edgeStyle=orthogonalEdgeStyle;rounded=0;orthogonalLoop=1;jettySize=auto;html=1;entryX=0;entryY=0.5;entryDx=0;entryDy=0;" parent="1" source="Ks6YIUJeLbi1-6-zDUMp-40" target="Ks6YIUJeLbi1-6-zDUMp-2" edge="1">
          <mxGeometry relative="1" as="geometry" />
        </mxCell>
        <mxCell id="Ks6YIUJeLbi1-6-zDUMp-43" style="edgeStyle=orthogonalEdgeStyle;rounded=0;orthogonalLoop=1;jettySize=auto;html=1;entryX=0;entryY=0.5;entryDx=0;entryDy=0;" parent="1" source="Ks6YIUJeLbi1-6-zDUMp-40" target="Ks6YIUJeLbi1-6-zDUMp-3" edge="1">
          <mxGeometry relative="1" as="geometry" />
        </mxCell>
        <mxCell id="Ks6YIUJeLbi1-6-zDUMp-40" value="" style="sketch=0;pointerEvents=1;shadow=0;dashed=0;html=1;strokeColor=none;fillColor=#005F4B;labelPosition=center;verticalLabelPosition=bottom;verticalAlign=top;align=center;outlineConnect=0;shape=mxgraph.veeam2.sd_card;" parent="1" vertex="1">
          <mxGeometry x="79" y="166" width="23" height="28.000000000000004" as="geometry" />
        </mxCell>
        <mxCell id="Ks6YIUJeLbi1-6-zDUMp-41" value="SD/EMMC/FLASH" style="text;html=1;align=center;verticalAlign=middle;resizable=0;points=[];autosize=1;strokeColor=none;fillColor=none;fontStyle=1" parent="1" vertex="1">
          <mxGeometry x="30.5" y="194" width="120" height="30" as="geometry" />
        </mxCell>
        <mxCell id="Ks6YIUJeLbi1-6-zDUMp-44" value="Read ATF binaries" style="text;html=1;align=center;verticalAlign=middle;resizable=0;points=[];autosize=1;strokeColor=none;fillColor=none;" parent="1" vertex="1">
          <mxGeometry x="67" y="240" width="120" height="30" as="geometry" />
        </mxCell>
        <mxCell id="Ks6YIUJeLbi1-6-zDUMp-46" value="· BL2 initializes the DRAM &lt;br&gt;· Configures TZASC&lt;br&gt;· Valid image (fip.bin)" style="text;html=1;align=left;verticalAlign=middle;resizable=0;points=[];autosize=1;strokeColor=none;fillColor=none;fontStyle=1" parent="1" vertex="1">
          <mxGeometry x="425" y="310" width="170" height="60" as="geometry" />
        </mxCell>
        <mxCell id="Ks6YIUJeLbi1-6-zDUMp-47" value="BL33" style="text;html=1;align=center;verticalAlign=middle;resizable=0;points=[];autosize=1;strokeColor=none;fillColor=none;" parent="1" vertex="1">
          <mxGeometry x="448" y="417" width="50" height="30" as="geometry" />
        </mxCell>
        <mxCell id="Ks6YIUJeLbi1-6-zDUMp-52" value="" style="group" parent="1" vertex="1" connectable="0">
          <mxGeometry x="75" y="470" width="130.5" height="49" as="geometry" />
        </mxCell>
        <mxCell id="Ks6YIUJeLbi1-6-zDUMp-48" value="" style="whiteSpace=wrap;html=1;fillColor=#a20025;fontColor=#ffffff;strokeColor=#6F0000;" parent="Ks6YIUJeLbi1-6-zDUMp-52" vertex="1">
          <mxGeometry y="10" width="43.5" height="10" as="geometry" />
        </mxCell>
        <mxCell id="Ks6YIUJeLbi1-6-zDUMp-49" value="Secure" style="text;html=1;align=center;verticalAlign=middle;resizable=0;points=[];autosize=1;strokeColor=none;fillColor=none;" parent="Ks6YIUJeLbi1-6-zDUMp-52" vertex="1">
          <mxGeometry x="43.5" width="60" height="30" as="geometry" />
        </mxCell>
        <mxCell id="Ks6YIUJeLbi1-6-zDUMp-50" value="" style="whiteSpace=wrap;html=1;fillColor=#008a00;fontColor=#ffffff;strokeColor=#005700;" parent="Ks6YIUJeLbi1-6-zDUMp-52" vertex="1">
          <mxGeometry y="29" width="43.5" height="10" as="geometry" />
        </mxCell>
        <mxCell id="Ks6YIUJeLbi1-6-zDUMp-51" value="Non-Secure" style="text;html=1;align=center;verticalAlign=middle;resizable=0;points=[];autosize=1;strokeColor=none;fillColor=none;" parent="Ks6YIUJeLbi1-6-zDUMp-52" vertex="1">
          <mxGeometry x="40.5" y="19" width="90" height="30" as="geometry" />
        </mxCell>
        <mxCell id="pAIMAV0HRuABpedHX489-4" style="edgeStyle=orthogonalEdgeStyle;rounded=0;orthogonalLoop=1;jettySize=auto;html=1;exitX=0.5;exitY=1;exitDx=0;exitDy=0;" parent="1" source="pAIMAV0HRuABpedHX489-1" target="pAIMAV0HRuABpedHX489-3" edge="1">
          <mxGeometry relative="1" as="geometry" />
        </mxCell>
        <mxCell id="pAIMAV0HRuABpedHX489-1" value="start" style="rounded=1;whiteSpace=wrap;html=1;fillColor=#008a00;strokeColor=#005700;fontColor=#ffffff;fontStyle=1" parent="1" vertex="1">
          <mxGeometry x="276" y="660" width="140" height="40" as="geometry" />
        </mxCell>
        <mxCell id="pAIMAV0HRuABpedHX489-6" style="edgeStyle=orthogonalEdgeStyle;rounded=0;orthogonalLoop=1;jettySize=auto;html=1;exitX=0.5;exitY=1;exitDx=0;exitDy=0;" parent="1" source="pAIMAV0HRuABpedHX489-3" target="pAIMAV0HRuABpedHX489-5" edge="1">
          <mxGeometry relative="1" as="geometry" />
        </mxCell>
        <mxCell id="pAIMAV0HRuABpedHX489-3" value="Ensure that&amp;nbsp;&lt;br&gt;dev mode/product mode" style="rounded=0;whiteSpace=wrap;html=1;fillColor=#008a00;fontColor=#ffffff;strokeColor=#005700;fontStyle=1" parent="1" vertex="1">
          <mxGeometry x="261" y="730" width="170" height="40" as="geometry" />
        </mxCell>
        <mxCell id="pAIMAV0HRuABpedHX489-9" style="edgeStyle=orthogonalEdgeStyle;rounded=0;orthogonalLoop=1;jettySize=auto;html=1;exitX=0.5;exitY=1;exitDx=0;exitDy=0;" parent="1" source="pAIMAV0HRuABpedHX489-5" target="pAIMAV0HRuABpedHX489-7" edge="1">
          <mxGeometry relative="1" as="geometry" />
        </mxCell>
        <mxCell id="pAIMAV0HRuABpedHX489-5" value="Provisioning" style="rounded=0;whiteSpace=wrap;html=1;fillColor=#a20025;fontColor=#ffffff;strokeColor=#6F0000;fontStyle=1" parent="1" vertex="1">
          <mxGeometry x="261" y="800" width="170" height="40" as="geometry" />
        </mxCell>
        <mxCell id="pAIMAV0HRuABpedHX489-16" style="edgeStyle=orthogonalEdgeStyle;rounded=0;orthogonalLoop=1;jettySize=auto;html=1;exitX=0.5;exitY=1;exitDx=0;exitDy=0;entryX=0.5;entryY=0;entryDx=0;entryDy=0;" parent="1" source="pAIMAV0HRuABpedHX489-7" target="pAIMAV0HRuABpedHX489-11" edge="1">
          <mxGeometry relative="1" as="geometry" />
        </mxCell>
        <mxCell id="pAIMAV0HRuABpedHX489-7" value="Program secure boot images" style="rounded=0;whiteSpace=wrap;html=1;fillColor=#008a00;fontColor=#ffffff;strokeColor=#005700;fontStyle=1" parent="1" vertex="1">
          <mxGeometry x="261" y="870" width="170" height="40" as="geometry" />
        </mxCell>
        <mxCell id="pAIMAV0HRuABpedHX489-10" value="dev mode:&amp;nbsp; &lt;span style=&quot;font-weight: normal;&quot;&gt;program on alternate bank.&lt;/span&gt;&lt;br&gt;product mode: &lt;span style=&quot;font-weight: normal;&quot;&gt;program on default bank.&lt;/span&gt;" style="text;html=1;align=left;verticalAlign=middle;resizable=0;points=[];autosize=1;strokeColor=none;fillColor=none;fontStyle=1" parent="1" vertex="1">
          <mxGeometry x="435" y="871" width="240" height="40" as="geometry" />
        </mxCell>
        <mxCell id="pAIMAV0HRuABpedHX489-20" style="edgeStyle=orthogonalEdgeStyle;rounded=0;orthogonalLoop=1;jettySize=auto;html=1;exitX=0.5;exitY=1;exitDx=0;exitDy=0;" parent="1" source="pAIMAV0HRuABpedHX489-11" target="pAIMAV0HRuABpedHX489-18" edge="1">
          <mxGeometry relative="1" as="geometry" />
        </mxCell>
        <mxCell id="pAIMAV0HRuABpedHX489-11" value="Power on board" style="rounded=0;whiteSpace=wrap;html=1;fillColor=#008a00;fontColor=#ffffff;strokeColor=#005700;fontStyle=1" parent="1" vertex="1">
          <mxGeometry x="259" y="940" width="170" height="40" as="geometry" />
        </mxCell>
        <mxCell id="pAIMAV0HRuABpedHX489-13" value="Warning" style="rounded=1;whiteSpace=wrap;html=1;arcSize=50;strokeColor=none;strokeWidth=1;fillColor=#FF0000;fontColor=#000000;whiteSpace=wrap;align=left;verticalAlign=middle;spacingLeft=0;fontStyle=1;fontSize=14;spacing=10;" parent="1" vertex="1">
          <mxGeometry x="435.5" y="812" width="75" height="20" as="geometry" />
        </mxCell>
        <mxCell id="pAIMAV0HRuABpedHX489-18" value="done" style="rounded=1;whiteSpace=wrap;html=1;fillColor=#008a00;strokeColor=#005700;fontColor=#ffffff;fontStyle=1" parent="1" vertex="1">
          <mxGeometry x="274" y="1010" width="140" height="40" as="geometry" />
        </mxCell>
        <mxCell id="pAIMAV0HRuABpedHX489-22" value="eFUSE dangerous" style="text;html=1;align=center;verticalAlign=middle;resizable=0;points=[];autosize=1;strokeColor=none;fillColor=none;fontStyle=1" parent="1" vertex="1">
          <mxGeometry x="426" y="790" width="130" height="30" as="geometry" />
        </mxCell>
      </root>
    </mxGraphModel>
  </diagram>
</mxfile>
